<svg width="665" height="196" viewBox="0 0 665 196" fill="none" xmlns="http://www.w3.org/2000/svg">

<g id="Export fan">
<g id="ampidentifier-lockup-fan">
<g id="Group">
<circle id="Model 1" cx="94" cy="20.0619" r="12.0619" fill="#3FB0A4"/>
<rect id="Vote 1" x="90.9845" y="57.1753" width="21.3402" height="6.03093" rx="3.01546" transform="rotate(-90 90.9845 57.1753)" fill="#3FB0A4"/>
<circle id="Model 2" cx="38.8894" cy="42.8895" r="12.0619" fill="#6592D3"/>
<rect id="Vote 2" x="63.0003" y="71.2649" width="21.3402" height="6.03093" rx="3.01546" transform="rotate(-135 63.0003 71.2649)" fill="#6592D3"/>
<circle id="Model 3" cx="16.0619" cy="98.0001" r="12.0619" fill="#9A7CC9"/>
<rect id="Vote 3" x="53.1753" y="101.015" width="21.3402" height="6.03093" rx="3.01546" transform="rotate(-180 53.1753 101.015)" fill="#9A7CC9"/>
<circle id="Model 4" cx="38.8894" cy="153.111" r="12.0619" fill="#C270A0"/>
<rect id="Vote 4" x="67.2648" y="129" width="21.3402" height="6.03093" rx="3.01546" transform="rotate(135 67.2648 129)" fill="#C270A0"/>
<circle id="Model 5" cx="94" cy="175.938" r="12.0619" fill="#CB6F7C"/>
<rect id="Vote 5" x="97.0155" y="138.825" width="21.3402" height="6.03093" rx="3.01546" transform="rotate(90 97.0155 138.825)" fill="#CB6F7C"/>
<circle id="Call" cx="94" cy="97.9999" r="24.1237" fill="#3FB0A4"/>
</g>
<path id="AMPidentifier" d="M158.564 127L182.06 66.632H196.492L220.076 127H207.668L202.828 114.152H175.196L170.356 127H158.564ZM178.804 104.472H199.132L193.06 88.104C192.825 87.5173 192.532 86.784 192.18 85.904C191.886 84.9653 191.564 83.968 191.212 82.912C190.86 81.7973 190.508 80.6827 190.156 79.568C189.804 78.4533 189.481 77.456 189.188 76.576H188.748C188.396 77.7493 187.956 79.0987 187.428 80.624C186.958 82.1493 186.489 83.5867 186.02 84.936C185.55 86.2853 185.169 87.3413 184.876 88.104L178.804 104.472ZM225.442 127V66.632H243.482L252.986 100.248C253.338 101.421 253.69 102.741 254.042 104.208C254.394 105.675 254.717 107.083 255.01 108.432C255.362 109.781 255.626 110.955 255.802 111.952H256.506C256.624 111.072 256.8 109.987 257.034 108.696C257.269 107.405 257.533 106.027 257.826 104.56C258.178 103.035 258.56 101.568 258.97 100.16L268.474 66.632H286.338V127H274.898V96.464C274.898 93.7653 274.928 91.0667 274.986 88.368C275.045 85.6693 275.104 83.352 275.162 81.416C275.28 79.48 275.338 78.336 275.338 77.984H274.634C274.517 78.512 274.224 79.656 273.754 81.416C273.285 83.176 272.786 85.0827 272.258 87.136C271.73 89.1893 271.261 90.9493 270.85 92.416L260.906 127H250.346L240.402 92.504C240.05 91.272 239.64 89.8053 239.17 88.104C238.76 86.344 238.32 84.5547 237.85 82.736C237.44 80.9173 237.058 79.3333 236.706 77.984H236.002C236.061 79.568 236.12 81.4747 236.178 83.704C236.237 85.8747 236.296 88.104 236.354 90.392C236.413 92.6213 236.442 94.6453 236.442 96.464V127H225.442ZM297.932 127V66.632H328.204C332.663 66.632 336.33 67.424 339.204 69.008C342.138 70.592 344.338 72.8213 345.804 75.696C347.271 78.5707 348.004 82.0027 348.004 85.992C348.004 89.9227 347.242 93.3547 345.716 96.288C344.191 99.2213 341.903 101.509 338.852 103.152C335.86 104.736 332.106 105.528 327.588 105.528H309.372V127H297.932ZM309.372 95.76H327.236C330.17 95.76 332.428 94.9093 334.012 93.208C335.655 91.448 336.476 89.0427 336.476 85.992C336.476 83.9387 336.124 82.208 335.42 80.8C334.716 79.392 333.69 78.3067 332.34 77.544C330.991 76.7813 329.29 76.4 327.236 76.4H309.372V95.76ZM354.597 71.208V63.376H360.933V71.208H354.597ZM354.597 127V80.712H360.933V127H354.597ZM387.236 128.056C383.423 128.056 380.137 127.205 377.38 125.504C374.623 123.803 372.511 121.163 371.044 117.584C369.636 113.947 368.932 109.224 368.932 103.416C368.932 97.96 369.665 93.5013 371.132 90.04C372.599 86.52 374.681 83.9093 377.38 82.208C380.137 80.5067 383.364 79.656 387.06 79.656C389.055 79.656 390.932 79.8907 392.692 80.36C394.452 80.8293 396.036 81.592 397.444 82.648C398.852 83.6453 400.084 84.9947 401.14 86.696H401.668V63.376H408.004V127H403.076L402.372 120.224H401.756C400.113 122.864 398.001 124.829 395.42 126.12C392.897 127.411 390.169 128.056 387.236 128.056ZM388.292 122.512C391.46 122.512 394.012 121.808 395.948 120.4C397.943 118.992 399.38 116.968 400.26 114.328C401.199 111.688 401.668 108.461 401.668 104.648V103.064C401.668 99.4267 401.287 96.4347 400.524 94.088C399.82 91.7413 398.823 89.9227 397.532 88.632C396.3 87.3413 394.921 86.4613 393.396 85.992C391.871 85.464 390.316 85.2 388.732 85.2C385.799 85.2 383.335 85.816 381.34 87.048C379.404 88.2213 377.937 90.0987 376.94 92.68C376.001 95.2613 375.532 98.6347 375.532 102.8V105C375.532 109.341 376.06 112.803 377.116 115.384C378.172 117.907 379.639 119.725 381.516 120.84C383.452 121.955 385.711 122.512 388.292 122.512ZM436.488 128.056C432.088 128.056 428.363 127.205 425.312 125.504C422.262 123.744 419.944 121.075 418.36 117.496C416.776 113.917 415.984 109.371 415.984 103.856C415.984 98.2827 416.776 93.736 418.36 90.216C419.944 86.6373 422.291 83.9973 425.4 82.296C428.51 80.536 432.382 79.656 437.016 79.656C441.299 79.656 444.878 80.5067 447.752 82.208C450.686 83.9093 452.886 86.3733 454.352 89.6C455.878 92.8267 456.64 96.7867 456.64 101.48V105.528H422.584C422.584 109.576 423.142 112.891 424.256 115.472C425.371 118.053 426.955 119.931 429.008 121.104C431.12 122.219 433.702 122.776 436.752 122.776C438.982 122.776 440.918 122.483 442.56 121.896C444.262 121.309 445.64 120.517 446.696 119.52C447.811 118.464 448.662 117.232 449.248 115.824C449.835 114.416 450.128 112.949 450.128 111.424H456.288C456.288 113.712 455.848 115.883 454.968 117.936C454.147 119.931 452.915 121.691 451.272 123.216C449.688 124.741 447.664 125.944 445.2 126.824C442.736 127.645 439.832 128.056 436.488 128.056ZM422.584 100.512H450.04C450.04 97.5787 449.688 95.144 448.984 93.208C448.339 91.2133 447.43 89.6293 446.256 88.456C445.083 87.224 443.675 86.344 442.032 85.816C440.448 85.288 438.659 85.024 436.664 85.024C433.79 85.024 431.326 85.5813 429.272 86.696C427.219 87.752 425.635 89.424 424.52 91.712C423.464 94 422.819 96.9333 422.584 100.512ZM464.474 127V80.712H469.49L470.106 88.016H470.722C472.012 85.904 473.479 84.2613 475.122 83.088C476.764 81.856 478.524 80.976 480.402 80.448C482.338 79.92 484.391 79.656 486.562 79.656C489.495 79.656 492.047 80.1547 494.218 81.152C496.447 82.0907 498.178 83.6453 499.41 85.816C500.642 87.9867 501.258 90.9493 501.258 94.704V127H494.922V95.32C494.922 93.2667 494.658 91.5947 494.13 90.304C493.602 89.0133 492.868 88.016 491.93 87.312C490.991 86.5493 489.876 86.0213 488.586 85.728C487.354 85.4347 485.975 85.288 484.45 85.288C482.103 85.288 479.874 85.8747 477.762 87.048C475.708 88.1627 474.036 89.776 472.746 91.888C471.455 94 470.81 96.5813 470.81 99.632V127H464.474ZM521.562 127.968C519.45 127.968 517.749 127.587 516.458 126.824C515.226 126.061 514.346 125.005 513.818 123.656C513.349 122.307 513.114 120.811 513.114 119.168V86.08H506.866V80.712H513.114L514.346 67.864H519.45V80.712H528.338V86.08H519.45V118.024C519.45 119.608 519.656 120.781 520.066 121.544C520.536 122.307 521.533 122.688 523.058 122.688H528.338V126.736C527.752 126.971 527.048 127.176 526.226 127.352C525.464 127.587 524.672 127.733 523.85 127.792C523.029 127.909 522.266 127.968 521.562 127.968ZM535.032 71.208V63.376H541.368V71.208H535.032ZM535.032 127V80.712H541.368V127H535.032ZM553.678 127V86.08H546.814V80.712H553.678V72.616C553.678 70.9733 553.913 69.3893 554.382 67.864C554.91 66.3387 555.849 65.1067 557.198 64.168C558.548 63.1707 560.454 62.672 562.918 62.672C563.681 62.672 564.444 62.7013 565.206 62.76C565.969 62.8187 566.673 62.9067 567.318 63.024C568.022 63.1413 568.638 63.3173 569.166 63.552V68.04H564.502C562.977 68.04 561.833 68.4213 561.07 69.184C560.366 69.9467 560.014 71.0613 560.014 72.528V80.712H569.166V86.08H560.014V127H553.678ZM575.59 71.208V63.376H581.926V71.208H575.59ZM575.59 127V80.712H581.926V127H575.59ZM610.477 128.056C606.077 128.056 602.352 127.205 599.301 125.504C596.251 123.744 593.933 121.075 592.349 117.496C590.765 113.917 589.973 109.371 589.973 103.856C589.973 98.2827 590.765 93.736 592.349 90.216C593.933 86.6373 596.28 83.9973 599.389 82.296C602.499 80.536 606.371 79.656 611.005 79.656C615.288 79.656 618.867 80.5067 621.741 82.208C624.675 83.9093 626.875 86.3733 628.341 89.6C629.867 92.8267 630.629 96.7867 630.629 101.48V105.528H596.573C596.573 109.576 597.131 112.891 598.245 115.472C599.36 118.053 600.944 119.931 602.997 121.104C605.109 122.219 607.691 122.776 610.741 122.776C612.971 122.776 614.907 122.483 616.549 121.896C618.251 121.309 619.629 120.517 620.685 119.52C621.8 118.464 622.651 117.232 623.237 115.824C623.824 114.416 624.117 112.949 624.117 111.424H630.277C630.277 113.712 629.837 115.883 628.957 117.936C628.136 119.931 626.904 121.691 625.261 123.216C623.677 124.741 621.653 125.944 619.189 126.824C616.725 127.645 613.821 128.056 610.477 128.056ZM596.573 100.512H624.029C624.029 97.5787 623.677 95.144 622.973 93.208C622.328 91.2133 621.419 89.6293 620.245 88.456C619.072 87.224 617.664 86.344 616.021 85.816C614.437 85.288 612.648 85.024 610.653 85.024C607.779 85.024 605.315 85.5813 603.261 86.696C601.208 87.752 599.624 89.424 598.509 91.712C597.453 94 596.808 96.9333 596.573 100.512ZM638.463 127V80.712H643.567L644.095 88.456H644.711C645.121 87.048 645.737 85.6693 646.559 84.32C647.38 82.9707 648.495 81.856 649.903 80.976C651.311 80.096 653.1 79.656 655.271 79.656C656.092 79.656 656.855 79.744 657.559 79.92C658.263 80.0373 658.791 80.1547 659.143 80.272V86.08H656.415C654.361 86.08 652.601 86.4613 651.135 87.224C649.668 87.928 648.465 88.9547 647.527 90.304C646.588 91.6533 645.884 93.208 645.415 94.968C645.004 96.6693 644.799 98.4587 644.799 100.336V127H638.463Z" fill="#FFFFFF"/>
</g>
</g>
</svg>
