<?xml version="1.0" encoding="UTF-8"?>
<svg width="512" height="512" viewBox="0 0 512 512" xmlns="http://www.w3.org/2000/svg">
<title>AMPidentifier favicon 512px</title>
<rect x="0" y="0" width="512" height="512" fill="#1C1B19" rx="92.16"/><line x1="256.00" y1="116.33" x2="345.78" y2="149.00" stroke="#8A8A82" stroke-width="7.612661760000001" stroke-linecap="round"/><line x1="345.78" y1="149.00" x2="393.55" y2="231.75" stroke="#8A8A82" stroke-width="7.612661760000001" stroke-linecap="round"/><line x1="393.55" y1="231.75" x2="376.96" y2="325.84" stroke="#8A8A82" stroke-width="7.612661760000001" stroke-linecap="round"/><line x1="376.96" y1="325.84" x2="303.77" y2="387.25" stroke="#8A8A82" stroke-width="7.612661760000001" stroke-linecap="round"/><line x1="303.77" y1="387.25" x2="208.23" y2="387.25" stroke="#8A8A82" stroke-width="7.612661760000001" stroke-linecap="round"/><line x1="208.23" y1="387.25" x2="135.04" y2="325.84" stroke="#8A8A82" stroke-width="7.612661760000001" stroke-linecap="round"/><line x1="135.04" y1="325.84" x2="118.45" y2="231.75" stroke="#8A8A82" stroke-width="7.612661760000001" stroke-linecap="round"/><line x1="118.45" y1="231.75" x2="166.22" y2="149.00" stroke="#8A8A82" stroke-width="7.612661760000001" stroke-linecap="round"/><line x1="166.22" y1="149.00" x2="256.00" y2="116.33" stroke="#8A8A82" stroke-width="7.612661760000001" stroke-linecap="round"/><circle cx="256.00" cy="116.33" r="20.28" fill="#F1EFE8"/><circle cx="345.78" cy="149.00" r="20.28" fill="#F1EFE8"/><circle cx="393.55" cy="231.75" r="20.28" fill="#F1EFE8"/><circle cx="376.96" cy="325.84" r="20.28" fill="none" stroke="#8A8A82" stroke-width="7.612661760000001"/><circle cx="303.77" cy="387.25" r="20.28" fill="none" stroke="#8A8A82" stroke-width="7.612661760000001"/><circle cx="208.23" cy="387.25" r="20.28" fill="none" stroke="#8A8A82" stroke-width="7.612661760000001"/><circle cx="135.04" cy="325.84" r="20.28" fill="none" stroke="#8A8A82" stroke-width="7.612661760000001"/><circle cx="118.45" cy="231.75" r="20.28" fill="#F1EFE8"/><circle cx="166.22" cy="149.00" r="20.28" fill="#F1EFE8"/><text x="256.0" y="271.7696" font-family="'IBM Plex Mono','Courier New',monospace" font-weight="700" font-size="40" fill="#F1EFE8" text-anchor="middle" letter-spacing="4">AMP</text>
</svg>