<?xml version="1.0" encoding="UTF-8"?>
<svg width="64" height="64" viewBox="0 0 64 64" xmlns="http://www.w3.org/2000/svg">
<title>AMPidentifier favicon 64px</title>
<rect x="0" y="0" width="64" height="64" fill="#1C1B19" rx="11.52"/><line x1="32.00" y1="14.54" x2="43.22" y2="18.63" stroke="#8A8A82" stroke-width="0.22528000000000004" stroke-linecap="round"/><line x1="43.22" y1="18.63" x2="49.19" y2="28.97" stroke="#8A8A82" stroke-width="0.22528000000000004" stroke-linecap="round"/><line x1="49.19" y1="28.97" x2="47.12" y2="40.73" stroke="#8A8A82" stroke-width="0.22528000000000004" stroke-linecap="round"/><line x1="47.12" y1="40.73" x2="37.97" y2="48.41" stroke="#8A8A82" stroke-width="0.22528000000000004" stroke-linecap="round"/><line x1="37.97" y1="48.41" x2="26.03" y2="48.41" stroke="#8A8A82" stroke-width="0.22528000000000004" stroke-linecap="round"/><line x1="26.03" y1="48.41" x2="16.88" y2="40.73" stroke="#8A8A82" stroke-width="0.22528000000000004" stroke-linecap="round"/><line x1="16.88" y1="40.73" x2="14.81" y2="28.97" stroke="#8A8A82" stroke-width="0.22528000000000004" stroke-linecap="round"/><line x1="14.81" y1="28.97" x2="20.78" y2="18.63" stroke="#8A8A82" stroke-width="0.22528000000000004" stroke-linecap="round"/><line x1="20.78" y1="18.63" x2="32.00" y2="14.54" stroke="#8A8A82" stroke-width="0.22528000000000004" stroke-linecap="round"/><circle cx="32.00" cy="14.54" r="2.53" fill="#F1EFE8"/><circle cx="43.22" cy="18.63" r="2.53" fill="#F1EFE8"/><circle cx="49.19" cy="28.97" r="2.53" fill="#F1EFE8"/><circle cx="47.12" cy="40.73" r="2.53" fill="none" stroke="#8A8A82" stroke-width="0.22528000000000004"/><circle cx="37.97" cy="48.41" r="2.53" fill="none" stroke="#8A8A82" stroke-width="0.22528000000000004"/><circle cx="26.03" cy="48.41" r="2.53" fill="none" stroke="#8A8A82" stroke-width="0.22528000000000004"/><circle cx="16.88" cy="40.73" r="2.53" fill="none" stroke="#8A8A82" stroke-width="0.22528000000000004"/><circle cx="14.81" cy="28.97" r="2.53" fill="#F1EFE8"/><circle cx="20.78" cy="18.63" r="2.53" fill="#F1EFE8"/><text x="32.0" y="33.9712" font-family="'IBM Plex Mono','Courier New',monospace" font-weight="700" font-size="7" fill="#F1EFE8" text-anchor="middle">AMP</text>
</svg>