<?xml version="1.0" encoding="UTF-8"?>
<svg width="32" height="32" viewBox="0 0 32 32" xmlns="http://www.w3.org/2000/svg">
<title>AMPidentifier favicon 32px</title>
<rect x="0" y="0" width="32" height="32" fill="#1C1B19" rx="5.76"/><line x1="16.00" y1="7.27" x2="21.61" y2="9.31" stroke="#8A8A82" stroke-width="0.11264000000000002" stroke-linecap="round"/><line x1="21.61" y1="9.31" x2="24.60" y2="14.48" stroke="#8A8A82" stroke-width="0.11264000000000002" stroke-linecap="round"/><line x1="24.60" y1="14.48" x2="23.56" y2="20.36" stroke="#8A8A82" stroke-width="0.11264000000000002" stroke-linecap="round"/><line x1="23.56" y1="20.36" x2="18.99" y2="24.20" stroke="#8A8A82" stroke-width="0.11264000000000002" stroke-linecap="round"/><line x1="18.99" y1="24.20" x2="13.01" y2="24.20" stroke="#8A8A82" stroke-width="0.11264000000000002" stroke-linecap="round"/><line x1="13.01" y1="24.20" x2="8.44" y2="20.36" stroke="#8A8A82" stroke-width="0.11264000000000002" stroke-linecap="round"/><line x1="8.44" y1="20.36" x2="7.40" y2="14.48" stroke="#8A8A82" stroke-width="0.11264000000000002" stroke-linecap="round"/><line x1="7.40" y1="14.48" x2="10.39" y2="9.31" stroke="#8A8A82" stroke-width="0.11264000000000002" stroke-linecap="round"/><line x1="10.39" y1="9.31" x2="16.00" y2="7.27" stroke="#8A8A82" stroke-width="0.11264000000000002" stroke-linecap="round"/><circle cx="16.00" cy="7.27" r="1.27" fill="#F1EFE8"/><circle cx="21.61" cy="9.31" r="1.27" fill="#F1EFE8"/><circle cx="24.60" cy="14.48" r="1.27" fill="#F1EFE8"/><circle cx="23.56" cy="20.36" r="1.27" fill="none" stroke="#8A8A82" stroke-width="0.11264000000000002"/><circle cx="18.99" cy="24.20" r="1.27" fill="none" stroke="#8A8A82" stroke-width="0.11264000000000002"/><circle cx="13.01" cy="24.20" r="1.27" fill="none" stroke="#8A8A82" stroke-width="0.11264000000000002"/><circle cx="8.44" cy="20.36" r="1.27" fill="none" stroke="#8A8A82" stroke-width="0.11264000000000002"/><circle cx="7.40" cy="14.48" r="1.27" fill="#F1EFE8"/><circle cx="10.39" cy="9.31" r="1.27" fill="#F1EFE8"/><circle cx="16.00" cy="7.27" r="1.27" fill="#F1EFE8"/><circle cx="21.61" cy="9.31" r="1.27" fill="#F1EFE8"/><circle cx="24.60" cy="14.48" r="1.27" fill="#F1EFE8"/><circle cx="7.40" cy="14.48" r="1.27" fill="#F1EFE8"/><circle cx="10.39" cy="9.31" r="1.27" fill="#F1EFE8"/>
</svg>